#!OML:ASF H:\LiuWeirdWalks\Patient Classification 1\Patient 1\Session 1\male.ASF
:FULLY-SPECIFIED
:DEGREES
578
root 3.63968 17.8331 37.9166 -7.46393 -2.68826 -12.6233
lowerback 9.24994 0.0699973 8.8131
upperback -0.0027141 1.33357 5.50022
thorax -5.15481 0.503706 0.651936
lowerneck -27.4481 0.613919 4.37482
upperneck 28.4525 0.375568 -4.22471
head 14.39 0.0149121 -2.39543
rclavicle -2.61899e-014 4.8901e-014
rhumerus -44.3923 -4.26113 -73.9007
rradius 43.0178
rwrist -11.2405
rhand -15.4821 1.71113
rfingers 7.12502
rthumb 10.6998 -27.9964
lclavicle -2.61899e-014 4.8901e-014
lhumerus -38.784 -10.5797 86.6825
lradius 40.9583
lwrist 7.38837
lhand -12.4628 -5.45551
lfingers 7.12502
lthumb 13.611 24.0795
rfemur -15.8327 -11.7911 24.5366
rtibia 73.6134
rfoot -14.6459 -17.6756
rtoes -10.5761
lfemur -6.23758 0.63931 -12.5227
ltibia 35.5341
lfoot -9.8239 13.2393
ltoes 1.3635
579
root 3.6314 17.8509 37.9447 -7.2814 -2.41211 -12.4587
lowerback 9.20018 0.191383 8.8573
upperback -0.081257 1.49256 5.33268
thorax -5.19575 0.576041 0.430357
lowerneck -27.6132 0.315095 3.99659
upperneck 28.4035 0.00293549 -3.93144
head 14.3809 -0.144135 -2.28493
rclavicle 1.22501e-014 4.8901e-014
rhumerus -44.5001 -5.0501 -73.5903
rradius 42.932
rwrist -11.3006
rhand -15.4889 1.71761
rfingers 7.12502
rthumb 10.6932 -27.9903
lclavicle 1.22501e-014 4.8901e-014
lhumerus -38.1914 -10.9487 86.7189
lradius 40.9529
lwrist 7.41839
lhand -12.5421 -5.37382
lfingers 7.12502
lthumb 13.5345 24.1663
rfemur -16.0804 -11.9142 24.2322
rtibia 73.9544
rfoot -14.6175 -17.5497
rtoes -10.4571
lfemur -6.17703 0.56728 -12.6952
ltibia 35.1004
lfoot -9.71385 13.0694
ltoes 1.32116
580
root 3.62301 17.8663 37.9712 -7.07912 -2.15844 -12.292
lowerback 9.14168 0.275529 8.80572
upperback -0.157321 1.59222 5.2045
thorax -5.23492 0.622172 0.311191
lowerneck -27.7486 0.0884876 3.69965
upperneck 28.3611 -0.279985 -3.69268
head 14.3762 -0.263397 -2.19307
rclavicle -5.86415e-015 -7.99114e-014
rhumerus -44.5344 -5.6464 -73.3447
rradius 42.7981
rwrist -11.3475
rhand -15.4562 1.75185
rfingers 7.12502
rthumb 10.7247 -27.9544
lclavicle -5.86415e-015 -7.99114e-014
lhumerus -37.6184 -11.0783 86.6923
lradius 40.9436
lwrist 7.45728
lhand -12.6919 -5.32042
lfingers 7.12502
lthumb 13.3902 24.2293
rfemur -16.3428 -12.0085 23.9477
rtibia 74.2721
rfoot -14.5982 -17.4516
rtoes -10.3812
lfemur -6.15158 0.522019 -12.8621
ltibia 34.6935
lfoot -9.63248 12.8908
ltoes 1.28575
581
root 3.61468 17.8801 37.9964 -6.87557 -1.94087 -12.1187
lowerback 9.10185 0.377117 8.77165
upperback -0.231211 1.71825 5.06194
thorax -5.2795 0.680371 0.163725
lowerneck -27.877 -0.1472 3.38886
upperneck 28.3354 -0.579181 -3.42221
head 14.3786 -0.385876 -2.08974
rclavicle 2.60905e-015 -8.62725e-014
rhumerus -44.5679 -6.25525 -73.1127
rradius 42.6418
rwrist -11.3597
rhand -15.4087 1.84345
rfingers 7.12502
rthumb 10.7706 -27.8604
lclavicle 2.60905e-015 -8.62725e-014
lhumerus -37.0371 -11.1631 86.6357
lradius 40.921
lwrist 7.4549
lhand -12.8708 -5.29995
lfingers 7.12502
lthumb 13.2178 24.261
rfemur -16.602 -12.0563 23.6759
rtibia 74.5552
rfoot -14.5908 -17.3659
rtoes -10.3362
lfemur -6.13452 0.507815 -13.029
ltibia 34.3116
lfoot -9.57446 12.7145
ltoes 1.24443
582
root 3.60622 17.8924 38.0203 -6.65463 -1.75448 -11.9407
lowerback 9.05136 0.348174 8.44032
upperback -0.281604 1.64241 5.05187
thorax -5.31644 0.649982 0.346343
lowerneck -27.9816 -0.142089 3.36431
upperneck 28.2974 -0.58083 -3.37551
head 14.3838 -0.382977 -2.06706
rclavicle -6.68413e-015 6.36111e-014
rhumerus -44.386 -6.32916 -73.0458
rradius 42.424
rwrist -11.3489
rhand -15.3669 1.96379
rfingers 7.12502
rthumb 10.8109 -27.738
lclavicle -6.68413e-015 6.36111e-014
lhumerus -36.5199 -10.6199 86.4407
lradius 40.9196
lwrist 7.39376
lhand -13.0878 -5.34476
lfingers 7.12502
lthumb 13.0086 24.2296
rfemur -16.8722 -12.0613 23.4252
rtibia 74.7923
rfoot -14.5952 -17.3009
rtoes -10.3248
lfemur -6.14764 0.526065 -13.1949
ltibia 33.9586
lfoot -9.52842 12.542
ltoes 1.19779
583
root 3.59741 17.9035 38.0431 -6.42914 -1.59705 -11.7691
lowerback 8.99702 0.261752 7.98907
upperback -0.323416 1.47931 5.09937
thorax -5.34977 0.581279 0.667682
lowerneck -28.0314 -0.0147375 3.50201
upperneck 28.2424 -0.437589 -3.44489
head 14.376 -0.317603 -2.08947
rclavicle 3.01656e-014 4.73108e-014
rhumerus -44.1233 -6.1572 -73.0683
rradius 42.1894
rwrist -11.3048
rhand -15.3334 2.08857
rfingers 7.12502
rthumb 10.8432 -27.6115
lclavicle 3.01656e-014 4.73108e-014
lhumerus -36.0569 -9.76221 86.1708
lradius 40.9298
lwrist 7.29706
lhand -13.3327 -5.43417
lfingers 7.12502
lthumb 12.7724 24.1551
rfemur -17.1317 -12.0267 23.2053
rtibia 74.9719
rfoot -14.6043 -17.2531
rtoes -10.2789
lfemur -6.17664 0.572533 -13.3481
ltibia 33.632
lfoot -9.48896 12.3742
ltoes 1.12137
584
root 3.58798 17.9139 38.0646 -6.18983 -1.45474 -11.6061
lowerback 8.93756 0.216226 7.63283
upperback -0.369332 1.37833 5.10346
thorax -5.37637 0.540211 0.883006
lowerneck -28.0872 0.052581 3.57767
upperneck 28.2021 -0.378869 -3.44047
head 14.3726 -0.283922 -2.08831
rclavicle -1.0461e-014 6.36111e-015
rhumerus -43.9119 -6.11584 -73.0849
rradius 41.9731
rwrist -11.2001
rhand -15.3043 2.15884
rfingers 7.12502
rthumb 10.8713 -27.5398
lclavicle -1.0461e-014 6.36111e-015
lhumerus -35.5919 -9.02175 85.9092
lradius 40.9462
lwrist 7.23745
lhand -13.5994 -5.53331
lfingers 7.12502
lthumb 12.5154 24.0719
rfemur -17.394 -11.9659 23.021
rtibia 75.0885
rfoot -14.6221 -17.2168
rtoes -10.2537
lfemur -6.23796 0.640495 -13.4874
ltibia 33.3356
lfoot -9.45197 12.2058
ltoes 1.01378
585
root 3.5781 17.9232 38.0848 -5.95536 -1.32741 -11.446
lowerback 8.88354 0.164602 7.26942
upperback -0.408882 1.26888 5.11024
thorax -5.39852 0.495596 1.10646
lowerneck -28.1456 0.134869 3.67712
upperneck 28.1679 -0.305424 -3.44803
head 14.373 -0.243064 -2.09331
rclavicle 1.02623e-014 2.18663e-014
rhumerus -43.6866 -6.03153 -73.1322
rradius 41.7476
rwrist -11.0314
rhand -15.2851 2.19321
rfingers 7.12502
rthumb 10.8898 -27.5044
lclavicle 1.02623e-014 2.18663e-014
lhumerus -35.1523 -8.22152 85.6305
lradius 40.9681
lwrist 7.18082
lhand -13.8874 -5.61896
lfingers 7.12502
lthumb 12.2376 24.003
rfemur -17.638 -11.8833 22.8581
rtibia 75.1371
rfoot -14.6479 -17.179
rtoes -10.2065
lfemur -6.30887 0.712907 -13.6221
ltibia 33.0672
lfoot -9.41754 12.0517
ltoes 0.890901
586
root 3.56765 17.932 38.1035 -5.7136 -1.20793 -11.2953
lowerback 8.82176 0.181275 7.0656
upperback -0.454895 1.26322 5.04538
thorax -5.41424 0.496681 1.15241
lowerneck -28.2271 0.0983908 3.63297
upperneck 28.1691 -0.383306 -3.32696
head 14.387 -0.263027 -2.05255
rclavicle 8.64713e-015 -1.55052e-014
rhumerus -43.5497 -6.18068 -73.1441
rradius 41.5349
rwrist -10.829
rhand -15.2877 2.19374
rfingers 7.12502
rthumb 10.8873 -27.504
lclavicle 8.64713e-015 -1.55052e-014
lhumerus -34.7019 -7.68939 85.4023
lradius 40.9975
lwrist 7.21423
lhand -14.207 -5.66299
lfingers 7.12502
lthumb 11.9295 23.9771
rfemur -17.8775 -11.7872 22.7275
rtibia 75.1127
rfoot -14.6782 -17.1453
rtoes -10.1025
lfemur -6.40802 0.7828 -13.7455
ltibia 32.8298
lfoot -9.38363 11.9063
ltoes 0.761172
587
root 3.5571 17.9399 38.1208 -5.48542 -1.1023 -11.1387
lowerback 8.77617 0.141686 6.744
upperback -0.491787 1.17417 5.03164
thorax -5.43499 0.460931 1.32867
lowerneck -28.2789 0.154761 3.69634
upperneck 28.1568 -0.341357 -3.30333
head 14.3943 -0.234674 -2.04535
rclavicle 8.52289e-015 -1.31198e-014
rhumerus -43.3357 -6.08541 -73.2387
rradius 41.2952
rwrist -10.6712
rhand -15.333 2.17453
rfingers 7.12502
rthumb 10.8436 -27.5255
lclavicle 8.52289e-015 -1.31198e-014
lhumerus -34.3269 -6.93832 85.1399
lradius 41.0563
lwrist 7.28657
lhand -14.5697 -5.68104
lfingers 7.12502
lthumb 11.5798 23.979
rfemur -18.0892 -11.6768 22.604
rtibia 75.0126
rfoot -14.7292 -17.1042
rtoes -9.98801
lfemur -6.50826 0.840122 -13.8771
ltibia 32.6198
lfoot -9.3487 11.7825
ltoes 0.636591
588
root 3.54633 17.9469 38.1369 -5.25703 -1.00581 -10.9913
lowerback 8.73489 0.00303923 6.22394
upperback -0.510515 0.937051 5.12142
thorax -5.44565 0.360039 1.74428
lowerneck -28.3192 0.376376 3.94448
upperneck 28.13 -0.085728 -3.45043
head 14.4029 -0.120623 -2.09625
rclavicle 6.89534e-015 -6.24184e-014
rhumerus -42.9713 -5.60273 -73.4399
rradius 41.0165
rwrist -10.5182
rhand -15.3863 2.13194
rfingers 7.12502
rthumb 10.7921 -27.5708
lclavicle 6.89534e-015 -6.24184e-014
lhumerus -34.0437 -5.81658 84.8251
lradius 41.1575
lwrist 7.42836
lhand -14.9784 -5.68589
lfingers 7.12502
lthumb 11.1856 23.9959
rfemur -18.2818 -11.5614 22.5084
rtibia 74.8296
rfoot -14.7853 -17.0721
rtoes -9.88968
lfemur -6.62771 0.887625 -13.9982
ltibia 32.4408
lfoot -9.3149 11.6686
ltoes 0.53245
589
root 3.53593 17.9535 38.1518 -5.04193 -0.926664 -10.8501
lowerback 8.72383 0.0617813 6.13062
upperback -0.548444 1.00209 5.02042
thorax -5.47753 0.392301 1.68148
lowerneck -28.4156 0.277911 3.809
upperneck 28.1285 -0.228746 -3.28087
head 14.4154 -0.171293 -2.03323
rclavicle 1.06847e-014 3.97569e-016
rhumerus -42.8745 -5.82321 -73.463
rradius 40.8022
rwrist -10.3415
rhand -15.4385 2.08963
rfingers 7.12502
rthumb 10.7418 -27.6157
lclavicle 1.06847e-014 3.97569e-016
lhumerus -33.6676 -5.4823 84.6767
lradius 41.2223
lwrist 7.65247
lhand -15.4065 -5.68468
lfingers 7.12502
lthumb 10.7727 24.0191
rfemur -18.4453 -11.4349 22.4308
rtibia 74.5607
rfoot -14.85 -17.0347
rtoes -9.80144
lfemur -6.74509 0.917783 -14.1148
ltibia 32.2868
lfoot -9.28273 11.576
ltoes 0.46674
